<?xml version="1.0" standalone="no"?>
<!DOCTYPE svg PUBLIC "-//W3C//DTD SVG 20010904//EN"
 "http://www.w3.org/TR/2001/REC-SVG-20010904/DTD/svg10.dtd">
<svg version="1.0" xmlns="http://www.w3.org/2000/svg"
 width="2132.000000pt" height="2132.000000pt" viewBox="0 0 2132.000000 2132.000000"
 preserveAspectRatio="xMidYMid meet">
<metadata>
Created by potrace 1.11, written by Peter Selinger 2001-2013
</metadata>
<g transform="translate(0.000000,2132.000000) scale(0.100000,-0.100000)"
fill="#000000" stroke="none">
<path d="M2625 10665 c0 -7097 3 -10655 10 -10656 5 -1 3625 -2 8043 -3 l8032
-1 0 10657 0 10658 -8043 0 -8042 0 0 -10655z m14280 4062 l0 -4788 -45 6
c-34 4 -284 53 -410 80 -8 2 -141 35 -295 75 -154 39 -287 73 -295 75 -80 20
-370 103 -500 142 -30 9 -59 18 -65 19 -18 3 -446 134 -640 195 -412 131
-1061 352 -1200 409 -11 5 -54 21 -95 36 -217 79 -576 240 -600 269 -8 10 10
29 78 82 77 59 448 412 791 754 194 194 331 344 439 482 35 45 70 90 79 101
13 16 101 150 190 290 50 77 182 344 231 466 43 107 83 222 122 345 10 34 50
189 56 220 36 183 36 185 49 290 4 28 8 61 11 75 7 46 18 283 17 395 0 126
-10 265 -28 392 -3 27 -8 60 -9 73 -2 14 -6 41 -10 60 -3 19 -8 46 -10 60 -2
14 -14 66 -26 115 -12 50 -23 99 -26 111 -2 12 -17 65 -34 119 -57 185 -109
317 -188 479 -204 417 -492 785 -852 1086 -65 55 -85 70 -170 133 -78 58 -229
157 -239 157 -5 0 -11 4 -13 8 -10 24 -368 207 -548 280 -246 99 -598 200
-790 227 -14 2 -54 8 -90 14 -36 5 -92 13 -125 16 -33 4 -71 8 -83 10 -143 23
-691 23 -877 0 -17 -2 -60 -6 -97 -10 -37 -3 -75 -7 -85 -9 -10 -2 -45 -7 -78
-11 -32 -3 -62 -8 -65 -10 -3 -1 -32 -6 -65 -10 -33 -3 -80 -11 -105 -16 -25
-6 -56 -12 -70 -14 -47 -6 -304 -65 -375 -86 -430 -126 -853 -358 -1200 -659
-52 -45 -292 -285 -330 -330 -345 -406 -568 -805 -716 -1280 -56 -180 -109
-418 -124 -555 -4 -33 -8 -67 -10 -75 -22 -87 -22 -608 0 -715 2 -11 7 -40 10
-65 3 -25 7 -55 9 -66 2 -12 7 -39 10 -60 4 -22 8 -46 11 -54 2 -8 6 -31 9
-50 4 -29 37 -162 75 -305 12 -42 90 -274 106 -310 7 -16 36 -86 66 -155 136
-320 323 -629 556 -923 151 -190 201 -245 398 -442 267 -268 455 -426 933
-784 105 -79 189 -147 187 -151 -3 -4 -81 -61 -175 -126 -94 -66 -312 -218
-485 -339 -173 -121 -396 -276 -496 -345 -99 -69 -189 -132 -199 -140 -10 -8
-47 -34 -82 -58 -35 -24 -121 -84 -193 -134 -71 -50 -166 -116 -210 -146 -221
-154 -362 -253 -377 -264 -9 -7 -79 -56 -154 -108 -76 -52 -203 -141 -283
-197 -182 -128 -113 -79 -566 -396 -215 -149 -468 -326 -563 -392 l-173 -120
28 -24 c46 -39 66 -54 128 -101 33 -25 66 -50 75 -57 18 -15 264 -205 304
-236 70 -54 603 -466 713 -552 67 -52 128 -98 136 -101 16 -6 166 92 462 304
52 37 214 153 362 257 462 328 496 352 573 408 41 29 220 157 398 283 178 126
369 262 425 302 125 90 107 77 312 223 480 343 1048 753 1235 890 166 123 239
169 316 200 66 27 93 32 164 33 96 1 131 -5 210 -33 51 -18 91 -34 350 -143
52 -22 106 -44 120 -48 14 -5 81 -32 150 -60 69 -28 148 -60 175 -70 28 -10
147 -55 265 -100 118 -45 226 -85 240 -90 14 -4 158 -56 320 -115 162 -58 302
-108 310 -110 8 -2 134 -44 280 -93 146 -49 480 -160 744 -247 464 -152 478
-157 460 -175 -11 -10 -145 -122 -299 -250 -154 -127 -289 -239 -300 -248 -11
-10 -123 -103 -249 -207 -126 -105 -261 -217 -300 -250 -40 -33 -94 -78 -122
-101 -103 -86 -380 -315 -394 -327 -24 -20 -194 -161 -207 -172 -12 -11 -30
-26 -258 -214 -88 -73 -169 -140 -180 -149 -11 -10 -60 -51 -110 -92 -49 -41
-99 -82 -110 -92 -11 -9 -227 -188 -480 -398 -253 -210 -469 -389 -480 -399
-11 -9 -63 -52 -115 -95 -52 -43 -115 -96 -140 -116 -25 -21 -92 -77 -150
-125 -58 -47 -125 -104 -150 -125 -59 -50 -296 -246 -346 -287 -21 -17 -192
-159 -379 -315 -188 -156 -387 -321 -443 -367 -56 -47 -102 -87 -102 -90 0 -3
24 -22 53 -41 28 -19 54 -37 57 -40 7 -8 428 -313 448 -325 9 -5 19 -13 22
-16 3 -3 70 -52 150 -109 80 -57 147 -106 150 -109 3 -3 28 -22 55 -41 28 -19
55 -38 60 -43 70 -59 400 -285 408 -280 13 8 199 163 207 172 3 3 26 23 52 44
26 21 53 43 60 50 7 7 94 79 193 162 99 82 191 160 205 171 28 24 114 97 145
123 11 9 90 75 175 146 85 71 164 137 175 146 11 10 51 43 90 76 38 32 75 63
81 68 12 11 48 42 249 210 167 139 189 158 370 310 77 64 162 136 190 159 27
22 94 79 150 126 55 47 125 105 155 129 30 24 62 51 70 60 8 9 38 34 65 56 28
21 52 42 55 45 3 3 73 61 155 130 83 69 164 137 180 151 17 15 64 54 105 88
41 34 86 72 100 84 14 12 63 54 110 92 47 38 87 72 90 75 3 3 61 52 130 110
69 57 130 109 136 115 7 5 20 17 31 25 28 22 134 111 163 136 24 21 101 87
145 123 22 17 123 102 165 137 51 44 126 107 145 123 55 45 271 227 281 236 7
5 20 17 30 25 37 29 209 175 214 180 3 3 28 24 55 45 28 22 52 42 55 45 3 3
61 53 130 110 69 57 127 107 130 110 3 3 115 97 250 210 135 112 247 208 248
212 26 60 27 -83 27 -3144 l0 -3153 -6238 -2 -6237 -1 0 8847 c0 4866 2 8850
4 8852 2 2 2809 4 6238 4 l6233 0 0 -4788z m-5530 1888 c439 -72 795 -249
1075 -536 333 -341 539 -810 587 -1335 9 -105 10 -427 0 -484 -14 -88 -18
-106 -33 -174 -16 -75 -76 -261 -101 -316 -110 -243 -234 -438 -398 -626 -69
-79 -405 -418 -510 -514 -105 -97 -238 -216 -350 -316 -55 -49 -102 -91 -105
-94 -3 -3 -41 -36 -85 -75 -44 -38 -87 -77 -96 -87 -24 -26 -115 -58 -172 -60
-49 -1 -61 4 -192 83 -172 105 -306 190 -323 206 -7 7 -17 13 -22 13 -5 0 -15
6 -22 13 -7 6 -36 28 -63 46 -256 178 -515 401 -710 612 -407 442 -670 986
-722 1494 -16 154 -8 426 17 555 6 30 13 69 16 85 10 59 64 236 100 327 143
360 398 674 719 884 241 156 527 256 860 300 28 3 52 8 53 9 7 6 436 -3 477
-10z"/>
</g>
</svg>
